<svg width="490" height="379" viewBox="0 0 490 379" fill="none" xmlns="http://www.w3.org/2000/svg">
<g clip-path="url(#clip0_344_22530)">
<path d="M80.125 378.036C80.125 378.57 80.4181 379 80.783 379H408.929C409.297 379 409.587 378.571 409.587 378.036C409.587 377.5 409.294 377.071 408.929 377.071H80.783C80.4181 377.072 80.125 377.501 80.125 378.036Z" fill="#CCCCCC"/>
<path d="M198.855 374.856H187.139V376.923H198.855V374.856Z" fill="#B6B3C5"/>
<path d="M302.573 375.2H290.857V377.267H302.573V375.2Z" fill="#B6B3C5"/>
<path d="M261.655 282.863C261.003 286.809 258.971 290.396 255.92 292.983C252.87 295.57 249 296.99 244.999 296.99C240.999 296.99 237.129 295.57 234.079 292.983C231.028 290.396 228.996 286.809 228.343 282.863H185.73V375.199H304.27V282.863H261.655Z" fill="#D6D6E3"/>
<path d="M304.614 367.884H186.076V371.098H304.614V367.884Z" fill="#090814"/>
<path d="M483.392 285.277H6.6083C4.85627 285.275 3.17655 284.578 1.93768 283.34C0.698803 282.101 0.00194779 280.421 0 278.67L0 6.608C0.00178549 4.8561 0.698569 3.17646 1.93746 1.93763C3.17636 0.698791 4.85616 0.00194781 6.6083 0H483.392C485.144 0.00210946 486.823 0.69892 488.062 1.93759C489.301 3.17626 489.998 4.85565 490 6.60739V278.67C489.998 280.421 489.301 282.101 488.062 283.339C486.823 284.578 485.144 285.275 483.392 285.277Z" fill="#090814"/>
<path d="M478.834 11.0361H12.2656V274.263H478.834V11.0361Z" fill="white"/>
<path d="M248.347 66.3298C245.173 61.0885 241.411 55.4924 235.521 53.781C228.699 51.7991 221.691 55.7363 215.747 59.6214C197.971 71.2408 180.852 83.8328 164.469 97.3399L164.487 97.5433C177.242 96.6652 189.996 95.7871 202.751 94.9089C211.967 94.2745 221.499 93.5525 229.643 89.2003C232.733 87.5488 235.745 85.3427 239.247 85.189C243.598 84.998 247.391 88.0315 250.373 91.2008C268.007 109.948 273.11 138.618 292.895 155.089C280.419 124.373 265.523 94.6937 248.347 66.3298Z" fill="#F2F2F2"/>
<path d="M356.745 225.342C354.795 222.884 353.998 222.308 352.074 219.827C336.412 199.603 321.69 178.696 307.909 157.106C298.549 142.443 289.652 127.498 281.22 112.272C277.206 105.033 273.302 97.7373 269.507 90.3849C266.563 84.684 263.685 78.949 260.872 73.18C260.067 71.5322 259.286 69.8769 258.508 68.2177C256.675 64.3161 254.877 60.3956 252.945 56.547C250.745 52.1606 248.066 47.562 244.025 44.615C242.186 43.2187 239.987 42.3739 237.685 42.1793C234.395 41.9672 231.36 43.3233 228.507 44.8044C207.63 55.672 188.086 69.2973 170.409 84.8015C152.686 100.34 136.845 117.896 123.208 137.109C122.791 137.704 121.804 137.136 122.225 136.537C123.884 134.196 125.575 131.881 127.298 129.59C148.733 101.13 175.016 76.6554 204.944 57.2857C209.979 54.028 215.109 50.9232 220.334 47.9711C222.967 46.4824 225.612 45.0127 228.302 43.6339C230.939 42.2816 233.739 41.0656 236.751 41.0202C247.004 40.8611 252.312 52.4522 255.958 60.2517C257.104 62.7063 258.264 65.1533 259.437 67.5927C263.873 76.8543 268.479 86.0312 273.256 95.1236C276.204 100.737 279.217 106.318 282.294 111.866C291.871 129.143 302.049 146.07 312.83 162.648C327.112 184.607 341.28 204.005 357.549 224.539C357.997 225.107 357.197 225.918 356.745 225.342Z" fill="#E4E4E4"/>
<path d="M169.395 79.0783C168.8 78.4154 168.208 77.7525 167.608 77.0896C162.881 71.8698 157.808 66.7106 151.316 63.7181C148.22 62.2462 144.841 61.4642 141.413 61.4264C137.869 61.4378 134.405 62.3658 131.13 63.6651C129.582 64.2825 128.068 64.9833 126.577 65.7295C124.874 66.5856 123.2 67.4985 121.535 68.419C118.408 70.1463 115.322 71.9494 112.277 73.8282C106.217 77.5669 100.347 81.591 94.6675 85.9004C91.7231 88.1353 88.8394 90.4435 86.0165 92.8248C83.3909 95.037 80.8184 97.3085 78.299 99.6393C77.7603 100.136 76.9558 99.3325 77.4946 98.8363C78.1586 98.2189 78.8302 97.6052 79.5018 96.9991C81.3989 95.287 83.3264 93.6077 85.2843 91.9611C88.8546 88.9535 92.5173 86.062 96.2725 83.2867C102.112 78.9684 108.152 74.9431 114.394 71.2107C117.513 69.347 120.675 67.5616 123.879 65.8545C124.847 65.3394 125.826 64.8356 126.816 64.3583C129.063 63.2268 131.398 62.278 133.798 61.5211C137.197 60.4232 140.794 60.0705 144.342 60.487C147.768 60.9845 151.069 62.1245 154.071 63.8469C160.445 67.4038 165.389 72.9039 170.2 78.2715C170.686 78.8169 169.885 79.6238 169.395 79.0783Z" fill="#E4E4E4"/>
<path d="M300.002 133.169L315.277 127.591L322.86 124.822C325.33 123.92 327.794 122.893 330.348 122.248C332.567 121.615 334.923 121.645 337.125 122.334C339.088 123.059 340.886 124.172 342.41 125.605C343.968 127.037 345.417 128.582 346.746 130.227C348.397 132.208 350.024 134.21 351.658 136.205C358.402 144.439 365.102 152.709 371.758 161.014C378.413 169.32 385.024 177.66 391.591 186.036C398.174 194.433 404.711 202.864 411.203 211.331C411.999 212.368 412.793 213.406 413.587 214.444C414.026 215.017 415.015 214.452 414.57 213.87C408.03 205.318 401.444 196.802 394.813 188.32C388.166 179.818 381.472 171.352 374.733 162.922C367.993 154.492 361.209 146.099 354.378 137.743C352.676 135.661 350.972 133.581 349.265 131.504C347.825 129.752 346.401 127.98 344.821 126.349C341.922 123.356 338.299 120.71 333.963 120.638C331.414 120.596 328.946 121.404 326.577 122.259C324.024 123.182 321.476 124.121 318.926 125.052L303.545 130.669L299.7 132.073C299.017 132.322 299.312 133.421 300.002 133.169Z" fill="#E4E4E4"/>
<path d="M149.306 70.286C141.544 66.3033 131.604 67.0833 124.471 72.0591C138.076 74.4025 151.533 77.538 164.771 81.4495C159.274 78.2332 154.973 73.1939 149.306 70.286Z" fill="#F2F2F2"/>
<path d="M124.395 72.0449L122.9 73.2575C123.406 72.8331 123.931 72.4352 124.471 72.0586C124.446 72.0542 124.42 72.0493 124.395 72.0449Z" fill="#F2F2F2"/>
<path d="M341.835 133.225C340.332 131.398 338.706 129.484 336.457 128.742L334.357 128.825C350.341 157.021 371.928 181.659 397.793 201.226C379.141 178.559 360.488 155.892 341.835 133.225Z" fill="#F2F2F2"/>
<path d="M211.269 118.151C212.241 121.676 214.43 124.743 217.449 126.812C218.616 127.605 219.997 128.366 220.396 129.718C220.606 130.58 220.477 131.49 220.035 132.259C219.593 133.019 219.056 133.719 218.437 134.343L218.38 134.554C215.483 132.84 212.728 130.673 211.128 127.715C209.528 124.758 209.304 120.881 211.269 118.151Z" fill="#F2F2F2"/>
<path d="M307.704 202.031C308.676 205.556 310.865 208.623 313.884 210.691C315.051 211.485 316.432 212.246 316.832 213.598C317.042 214.46 316.912 215.37 316.47 216.139C316.029 216.899 315.492 217.599 314.872 218.222L314.815 218.434C311.919 216.72 309.163 214.553 307.563 211.595C305.963 208.637 305.74 204.761 307.704 202.031Z" fill="#F2F2F2"/>
<path d="M115.245 196.247C116.217 199.771 118.406 202.839 121.425 204.907C122.592 205.701 123.973 206.462 124.373 207.814C124.583 208.676 124.453 209.586 124.011 210.355C123.57 211.115 123.033 211.815 122.413 212.438L122.357 212.65C119.46 210.936 116.704 208.768 115.104 205.811C113.504 202.853 113.281 198.977 115.245 196.247Z" fill="#F2F2F2"/>
<path d="M176.849 173.479C176.706 173.061 176.465 172.682 176.146 172.376C176.028 172.267 175.9 172.168 175.765 172.082C174.685 171.363 173.07 171.202 172.044 172.082C171.941 172.172 171.845 172.27 171.758 172.376C171.452 172.752 171.138 173.12 170.815 173.479C170.285 174.082 169.743 174.665 169.176 175.231C169.014 175.388 168.853 175.549 168.687 175.706C168.592 175.801 168.497 175.892 168.402 175.983C168.038 176.33 167.665 176.665 167.288 176.995C167.09 177.173 166.891 177.347 166.688 177.516C166.386 177.768 166.084 178.02 165.778 178.264C165.749 178.285 165.72 178.305 165.691 178.33C165.683 178.334 165.678 178.342 165.67 178.347C165.666 178.347 165.662 178.347 165.658 178.355C165.647 178.359 165.637 178.366 165.629 178.375C165.538 178.437 165.476 178.479 165.43 178.516C165.447 178.508 165.463 178.495 165.48 178.487C165.405 178.545 165.327 178.603 165.252 178.661C164.528 179.194 163.787 179.706 163.03 180.185C161.156 181.383 159.187 182.426 157.144 183.305C157.007 183.359 156.867 183.417 156.726 183.47C151.376 185.658 145.573 186.512 139.819 185.958C139.231 185.912 138.643 185.85 138.055 185.772C137.377 185.673 136.702 185.553 136.031 185.416C133.479 184.908 130.981 184.155 128.573 183.169C125.561 181.792 122.696 180.114 120.022 178.161C119.608 177.867 119.19 177.574 118.772 177.289C119.248 176.124 119.716 174.958 120.171 173.785C120.399 173.219 120.618 172.653 120.833 172.082C122.526 167.69 124.116 163.256 125.639 158.806C127.178 154.298 128.631 149.764 129.997 145.204C130.138 144.741 130.274 144.278 130.407 143.815C131.123 141.406 131.81 138.992 132.468 136.572C132.53 136.336 132.596 136.105 132.654 135.869C132.844 135.175 133.031 134.481 133.213 133.787C133.627 132.221 132.691 130.349 131.044 129.973C130.251 129.77 129.41 129.882 128.698 130.286C127.986 130.69 127.459 131.354 127.228 132.138C127.05 132.807 126.872 133.473 126.69 134.142C125.817 137.377 124.898 140.602 123.933 143.815C123.793 144.278 123.652 144.741 123.511 145.204C121.384 152.203 119.048 159.133 116.504 165.992C116.198 166.822 115.887 167.65 115.573 168.475C115.42 168.88 115.267 169.285 115.109 169.69C114.807 170.487 114.497 171.285 114.186 172.082C114.008 172.549 113.826 173.016 113.644 173.479C113.524 173.772 113.408 174.066 113.292 174.355C112.112 173.932 110.89 173.638 109.646 173.479L109.447 173.454C108.483 173.338 107.508 173.347 106.546 173.479C105.106 173.647 103.721 174.128 102.488 174.889C101.255 175.65 100.204 176.673 99.4104 177.884C97.4362 180.987 97.461 185.425 100.23 188.061C103.082 190.776 107.399 190.755 110.755 189.057C112.534 188.096 114.034 186.693 115.109 184.983C115.521 184.363 115.9 183.721 116.243 183.061C116.33 183.119 116.417 183.177 116.504 183.239C116.835 183.47 117.166 183.706 117.493 183.937C119.398 185.315 121.406 186.546 123.499 187.619C127.999 189.852 132.842 191.315 137.828 191.945C137.939 191.957 138.047 191.974 138.159 191.986C138.709 192.057 139.264 192.11 139.819 192.156C147.774 192.754 155.74 191.129 162.823 187.462C163.423 187.152 164.017 186.827 164.606 186.487C165.521 185.958 166.415 185.396 167.288 184.801C167.764 184.478 168.228 184.152 168.687 183.809C170.695 182.333 172.566 180.68 174.279 178.871C174.929 178.19 175.551 177.486 176.146 176.76C176.708 176.166 177.032 175.387 177.056 174.57C177.053 174.197 176.983 173.827 176.849 173.479ZM108.313 183.321C108.4 183.26 108.487 183.193 108.57 183.127C108.545 183.189 108.425 183.26 108.313 183.321ZM109.642 181.987C109.547 182.094 109.46 182.202 109.365 182.309C109.075 182.633 108.764 182.936 108.433 183.218C108.388 183.26 108.338 183.301 108.288 183.338C108.288 183.338 108.287 183.338 108.287 183.338C108.286 183.339 108.286 183.339 108.285 183.339C108.285 183.34 108.285 183.34 108.285 183.341C108.284 183.341 108.284 183.342 108.284 183.342C108.224 183.369 108.166 183.399 108.11 183.433C107.932 183.54 107.75 183.64 107.564 183.731C107.199 183.865 106.824 183.968 106.442 184.04C106.149 184.062 105.855 184.065 105.561 184.049H105.553C105.35 184.004 105.15 183.949 104.952 183.883C104.853 183.834 104.758 183.776 104.663 183.718C104.625 183.685 104.592 183.652 104.572 183.631C104.531 183.595 104.494 183.554 104.46 183.512C104.46 183.511 104.46 183.51 104.46 183.51C104.459 183.509 104.459 183.509 104.459 183.509C104.458 183.508 104.458 183.508 104.457 183.508C104.457 183.508 104.456 183.507 104.456 183.507C104.41 183.425 104.361 183.342 104.315 183.259C104.313 183.257 104.311 183.254 104.311 183.251C104.278 183.148 104.249 183.041 104.224 182.933C104.215 182.744 104.216 182.555 104.228 182.367C104.284 182.103 104.358 181.843 104.452 181.59C104.535 181.411 104.631 181.237 104.737 181.07C104.746 181.053 104.787 180.987 104.832 180.913C104.837 180.908 104.837 180.908 104.837 180.904C104.899 180.834 104.961 180.76 105.027 180.694C105.139 180.57 105.259 180.462 105.379 180.351C105.612 180.198 105.854 180.059 106.103 179.933C106.498 179.793 106.904 179.684 107.316 179.607C107.923 179.559 108.534 179.564 109.141 179.623C109.716 179.723 110.283 179.862 110.838 180.041C110.501 180.693 110.118 181.32 109.692 181.917C109.675 181.941 109.658 181.966 109.642 181.987ZM105.039 180.627C105.003 180.686 104.96 180.74 104.911 180.789C104.944 180.728 104.987 180.673 105.039 180.627Z" fill="#3F3D56"/>
<path d="M164.406 131.279C164.369 132.576 164.331 133.874 164.294 135.171C164.216 138.051 164.134 140.933 164.05 143.815C163.963 147.059 163.872 150.301 163.777 153.542C163.731 155.216 163.684 156.889 163.636 158.563C163.508 163.071 163.381 167.577 163.255 172.082C163.243 172.549 163.226 173.012 163.214 173.479C163.152 175.715 163.09 177.95 163.028 180.185C162.957 182.611 162.888 185.036 162.821 187.462C162.771 189.28 162.72 191.099 162.668 192.92C162.295 206.114 161.923 219.307 161.55 232.501C161.534 233.318 161.202 234.097 160.624 234.675C160.045 235.253 159.264 235.584 158.446 235.6C157.625 235.593 156.839 235.265 156.258 234.685C155.678 234.105 155.348 233.321 155.342 232.501C155.549 225.08 155.758 217.659 155.971 210.238C156.157 203.527 156.346 196.817 156.538 190.106C156.6 187.896 156.662 185.684 156.724 183.47C156.819 180.14 156.913 176.81 157.006 173.479C157.018 173.012 157.035 172.549 157.047 172.082C157.055 171.673 157.068 171.269 157.08 170.859C157.262 164.393 157.444 157.925 157.626 151.455C157.701 148.91 157.773 146.363 157.842 143.815C157.924 140.91 158.007 138.007 158.09 135.105C158.127 133.828 158.16 132.556 158.198 131.279C158.213 130.462 158.545 129.683 159.124 129.105C159.703 128.527 160.483 128.195 161.302 128.18C162.123 128.186 162.909 128.515 163.489 129.095C164.07 129.674 164.399 130.459 164.406 131.279Z" fill="#3F3D56"/>
<path d="M334.693 132.139C331.438 144.444 327.547 156.573 323.037 168.477C321.793 171.76 320.519 175.037 319.158 178.274L319.471 177.534C318.864 179.076 318.088 180.547 317.158 181.919C317.095 182.007 317.03 182.095 316.965 182.182C317.286 181.771 317.347 181.69 317.148 181.939C317.043 182.063 316.939 182.187 316.83 182.309C316.54 182.632 316.229 182.936 315.899 183.219C315.816 183.29 315.732 183.359 315.646 183.427L316.034 183.126C315.989 183.232 315.673 183.373 315.575 183.433C315.256 183.625 314.923 183.793 314.579 183.937L315.321 183.624C314.757 183.851 314.17 184.012 313.569 184.104L314.395 183.993C313.805 184.074 313.207 184.081 312.616 184.012L313.441 184.123C312.957 184.056 312.484 183.929 312.032 183.744L312.773 184.056C312.532 183.951 312.3 183.828 312.078 183.686C311.966 183.613 311.621 183.352 312.072 183.696C312.541 184.054 312.133 183.727 312.036 183.632C311.956 183.553 311.883 183.466 311.804 183.386C311.439 183.012 312.217 184.029 311.969 183.592C311.836 183.373 311.715 183.147 311.605 182.916L311.918 183.656C311.776 183.304 311.675 182.936 311.617 182.56L311.728 183.384C311.668 182.917 311.668 182.444 311.726 181.977L311.615 182.801C311.691 182.28 311.83 181.769 312.027 181.28L311.714 182.021C311.852 181.692 312.015 181.375 312.202 181.071C312.288 180.914 312.389 180.766 312.503 180.628C312.524 180.635 311.978 181.253 312.268 180.941C312.343 180.859 312.414 180.773 312.491 180.692C312.613 180.563 312.745 180.444 312.874 180.321C313.306 179.91 312.269 180.72 312.768 180.395C313.129 180.158 313.51 179.951 313.906 179.776L313.164 180.088C313.827 179.816 314.522 179.63 315.232 179.535L314.406 179.645C315.295 179.543 316.194 179.554 317.08 179.677L316.255 179.566C317.378 179.736 318.475 180.044 319.521 180.483L318.78 180.171C321.011 181.127 322.986 182.547 324.958 183.939C326.863 185.316 328.87 186.546 330.962 187.619C335.463 189.853 340.307 191.316 345.292 191.947C352.442 192.821 359.698 191.889 366.393 189.235C373.089 186.582 379.01 182.293 383.613 176.761C384.174 176.166 384.498 175.386 384.522 174.569C384.516 173.749 384.19 172.962 383.613 172.378C382.474 171.334 380.322 171.04 379.223 172.378C378.18 173.648 377.06 174.853 375.867 175.984C375.311 176.511 374.739 177.022 374.153 177.517C373.818 177.799 373.478 178.076 373.134 178.348C372.971 178.476 372.464 178.818 373.243 178.266C373.065 178.393 372.893 178.531 372.717 178.661C370.111 180.579 367.286 182.183 364.302 183.439L365.044 183.127C361.842 184.468 358.479 185.388 355.039 185.863L355.865 185.753C352.326 186.217 348.742 186.212 345.205 185.737L346.031 185.848C342.495 185.363 339.036 184.423 335.743 183.05L336.484 183.363C333.305 181.959 330.289 180.214 327.488 178.16C326.03 177.082 324.492 176.116 322.888 175.27C321.019 174.317 318.996 173.703 316.912 173.457C313.006 172.998 309.025 174.517 306.877 177.886C304.9 180.987 304.926 185.425 307.694 188.061C310.545 190.777 314.862 190.754 318.221 189.055C321.457 187.419 323.4 184.02 324.767 180.815C327.843 173.603 330.566 166.224 333.103 158.807C335.613 151.469 337.889 144.057 339.931 136.571C340.184 135.644 340.434 134.716 340.679 133.787C341.094 132.221 340.157 130.349 338.511 129.975C337.718 129.771 336.876 129.882 336.164 130.286C335.451 130.69 334.924 131.354 334.693 132.139Z" fill="#3F3D56"/>
<path d="M365.666 131.279L364.549 170.861L363.437 210.237L362.809 232.501C362.816 233.321 363.145 234.105 363.726 234.685C364.306 235.265 365.092 235.593 365.913 235.6C366.731 235.585 367.512 235.253 368.09 234.675C368.669 234.097 369.001 233.318 369.017 232.501L370.134 192.919L371.246 153.544L371.874 131.279C371.867 130.459 371.538 129.675 370.957 129.095C370.377 128.515 369.591 128.187 368.77 128.18C367.952 128.195 367.171 128.527 366.593 129.105C366.014 129.683 365.682 130.462 365.666 131.279Z" fill="#3F3D56"/>
<path d="M283.175 161.174C279.612 154.236 274.092 148.398 267.6 144.108C261.087 139.823 253.613 137.214 245.845 136.513C244.826 136.421 243.806 136.366 242.782 136.351C241.573 136.333 223.385 141.57 217.292 145.847C211.202 150.072 206.193 155.666 202.668 162.18C199.149 168.729 197.418 176.087 197.649 183.515C197.951 190.987 200.037 198.28 203.735 204.785C207.381 211.268 212.56 216.764 218.819 220.795C225.167 224.838 231.544 235.561 239.039 235.939C246.591 236.32 255.203 226.206 262.091 223.135C268.978 220.039 274.933 215.194 279.36 209.084C283.663 203.097 286.447 196.156 287.472 188.859C288.537 181.387 288.041 173.681 285.485 166.539C284.829 164.704 284.058 162.912 283.175 161.174C282.439 159.726 280.28 159.193 278.928 160.063C278.232 160.491 277.728 161.17 277.52 161.96C277.313 162.749 277.418 163.589 277.815 164.303C278.247 165.153 278.649 166.018 279.021 166.897L278.708 166.156C280.116 169.534 281.072 173.082 281.554 176.709L281.444 175.885C281.956 179.819 281.947 183.804 281.416 187.737L281.527 186.913C280.991 190.845 279.939 194.689 278.4 198.348L278.713 197.607C277.922 199.474 276.999 201.283 275.952 203.02C275.421 203.897 274.858 204.754 274.263 205.591C274.002 205.957 273.732 206.318 273.461 206.678C273.106 207.147 273.944 206.065 273.577 206.525C273.515 206.603 273.453 206.682 273.39 206.76C273.202 206.995 273.012 207.227 272.818 207.458C271.528 208.995 270.12 210.429 268.606 211.748C268.23 212.077 267.846 212.398 267.457 212.711C267.263 212.868 267.071 213.031 266.869 213.176C266.876 213.171 267.522 212.681 267.14 212.965C267.02 213.054 266.901 213.145 266.78 213.234C265.977 213.828 265.153 214.392 264.307 214.925C262.361 216.15 260.318 217.215 258.2 218.112L258.942 217.8C255.288 219.335 251.448 220.385 247.52 220.92L248.345 220.809C244.419 221.339 240.44 221.346 236.512 220.83L237.337 220.941C233.768 220.463 230.276 219.52 226.951 218.138L227.692 218.45C225.766 217.638 223.909 216.672 222.139 215.561C221.264 215.01 220.41 214.425 219.58 213.806C219.462 213.718 219.344 213.629 219.226 213.54C218.847 213.254 219.498 213.75 219.504 213.754C219.283 213.596 219.071 213.427 218.868 213.248C218.467 212.922 218.073 212.588 217.684 212.247C216.13 210.88 214.678 209.401 213.341 207.822C213.006 207.427 212.679 207.026 212.358 206.619C212.22 206.443 211.967 206.086 212.526 206.838C212.452 206.739 212.376 206.642 212.302 206.543C212.123 206.307 211.947 206.069 211.774 205.829C211.166 204.99 210.588 204.129 210.04 203.249C208.803 201.255 207.722 199.167 206.81 197.006L207.123 197.746C205.629 194.198 204.608 190.47 204.084 186.657L204.195 187.481C203.723 183.966 203.717 180.404 204.175 176.888L204.064 177.712C204.535 174.306 205.452 170.978 206.794 167.812L206.481 168.552C207.325 166.57 208.321 164.656 209.459 162.827C210.029 161.911 210.633 161.018 211.271 160.147C211.416 159.949 211.562 159.753 211.711 159.557C211.845 159.38 212.213 158.94 211.584 159.718C211.646 159.641 211.705 159.563 211.766 159.486C212.116 159.043 212.475 158.607 212.842 158.178C214.232 156.554 215.737 155.032 217.346 153.625C217.753 153.269 218.166 152.92 218.586 152.58C218.777 152.425 218.968 152.271 219.162 152.12C219.239 152.059 219.317 152 219.394 151.938C218.567 152.595 219.164 152.117 219.352 151.977C220.217 151.33 221.105 150.715 222.016 150.133C224.041 148.84 226.171 147.72 228.384 146.783L227.642 147.096C230.854 145.749 245.084 142.571 247.672 142.918L246.847 142.808C250.651 143.338 254.369 144.363 257.906 145.858L257.165 145.546C258.957 146.305 260.699 147.179 262.38 148.161C263.219 148.652 264.043 149.17 264.849 149.715C265.231 149.973 265.609 150.237 265.983 150.507C266.17 150.641 266.355 150.778 266.54 150.915C266.643 150.992 266.744 151.069 266.847 151.146C267.277 151.468 266.254 150.68 266.705 151.036C268.214 152.219 269.647 153.496 270.996 154.859C271.659 155.533 272.299 156.228 272.916 156.944C273.232 157.311 273.542 157.684 273.845 158.063C273.996 158.251 274.51 158.931 273.88 158.098C274.034 158.301 274.19 158.504 274.341 158.709C275.649 160.476 276.811 162.347 277.815 164.303C278.557 165.748 280.706 166.287 282.062 165.414C282.758 164.987 283.263 164.307 283.47 163.517C283.678 162.728 283.572 161.888 283.175 161.174Z" fill="#3F3D56"/>
<path d="M107.422 185.941C109.936 185.941 111.975 183.906 111.975 181.396C111.975 178.886 109.936 176.851 107.422 176.851C104.907 176.851 102.869 178.886 102.869 181.396C102.869 183.906 104.907 185.941 107.422 185.941Z" fill="#3F3D56"/>
<path d="M162.057 235.526C164.571 235.526 166.609 233.491 166.609 230.981C166.609 228.471 164.571 226.436 162.057 226.436C159.542 226.436 157.504 228.471 157.504 230.981C157.504 233.491 159.542 235.526 162.057 235.526Z" fill="#3F3D56"/>
<path d="M369.416 235.526C371.931 235.526 373.969 233.491 373.969 230.981C373.969 228.471 371.931 226.436 369.416 226.436C366.902 226.436 364.863 228.471 364.863 230.981C364.863 233.491 366.902 235.526 369.416 235.526Z" fill="#3F3D56"/>
<path d="M380.59 177.677C383.104 177.677 385.143 175.642 385.143 173.132C385.143 170.622 383.104 168.587 380.59 168.587C378.075 168.587 376.037 170.622 376.037 173.132C376.037 175.642 378.075 177.677 380.59 177.677Z" fill="#3F3D56"/>
<path d="M367.346 135.531C369.86 135.531 371.899 133.496 371.899 130.986C371.899 128.475 369.86 126.44 367.346 126.44C364.831 126.44 362.793 128.475 362.793 130.986C362.793 133.496 364.831 135.531 367.346 135.531Z" fill="#3F3D56"/>
<path d="M177.37 173.132C177.367 174.293 176.918 175.409 176.114 176.248C175.31 177.087 174.214 177.586 173.053 177.641C171.891 177.696 170.753 177.303 169.873 176.543C168.994 175.783 168.44 174.715 168.328 173.56C168.215 172.404 168.552 171.25 169.269 170.335C169.985 169.42 171.026 168.816 172.177 168.646C173.327 168.477 174.499 168.755 175.449 169.424C176.4 170.093 177.056 171.101 177.283 172.24C177.341 172.534 177.371 172.833 177.37 173.132Z" fill="#3F3D56"/>
<path d="M268.426 148.753C270.94 148.753 272.979 146.718 272.979 144.207C272.979 141.697 270.94 139.662 268.426 139.662C265.911 139.662 263.873 141.697 263.873 144.207C263.873 146.718 265.911 148.753 268.426 148.753Z" fill="#3F3D56"/>
<path d="M223.311 144.208C223.309 145.369 222.859 146.484 222.055 147.323C221.252 148.163 220.156 148.661 218.994 148.716C217.832 148.771 216.694 148.378 215.815 147.618C214.935 146.859 214.382 145.79 214.269 144.635C214.157 143.479 214.494 142.325 215.21 141.41C215.926 140.496 216.968 139.891 218.118 139.721C219.268 139.552 220.44 139.83 221.391 140.499C222.341 141.168 222.998 142.176 223.225 143.315C223.283 143.609 223.312 143.908 223.311 144.208Z" fill="#3F3D56"/>
<path d="M164.54 130.985C164.537 132.146 164.087 133.262 163.284 134.101C162.48 134.94 161.384 135.439 160.222 135.493C159.061 135.548 157.922 135.155 157.043 134.396C156.164 133.636 155.61 132.568 155.498 131.412C155.385 130.257 155.722 129.102 156.438 128.187C157.155 127.273 158.196 126.668 159.347 126.499C160.497 126.329 161.669 126.608 162.619 127.277C163.57 127.946 164.226 128.954 164.453 130.092C164.511 130.386 164.541 130.685 164.54 130.985Z" fill="#3F3D56"/>
<path d="M316.023 187.594C318.538 187.594 320.576 185.559 320.576 183.049C320.576 180.539 318.538 178.504 316.023 178.504C313.509 178.504 311.471 180.539 311.471 183.049C311.471 185.559 313.509 187.594 316.023 187.594Z" fill="#3F3D56"/>
<path d="M244.421 146.274C248.078 146.274 251.043 143.314 251.043 139.663C251.043 136.012 248.078 133.052 244.421 133.052C240.764 133.052 237.799 136.012 237.799 139.663C237.799 143.314 240.764 146.274 244.421 146.274Z" fill="#3F3D56"/>
<path d="M423.507 235.873L68.4928 236C68.4281 236 68.364 235.987 68.3042 235.962C68.2444 235.937 68.1901 235.901 68.1443 235.856C68.0986 235.81 68.0623 235.756 68.0375 235.696C68.0127 235.636 68 235.572 68 235.508C68 235.443 68.0127 235.379 68.0375 235.319C68.0623 235.26 68.0986 235.205 68.1443 235.16C68.1901 235.114 68.2444 235.078 68.3042 235.053C68.364 235.028 68.4281 235.016 68.4928 235.016L423.507 234.889C423.638 234.889 423.763 234.941 423.855 235.033C423.947 235.125 423.999 235.25 423.999 235.381C423.999 235.511 423.947 235.636 423.855 235.728C423.763 235.82 423.638 235.872 423.507 235.873Z" fill="#CACACA"/>
</g>
<defs>
<clipPath id="clip0_344_22530">
<rect width="490" height="379" fill="white"/>
</clipPath>
</defs>
</svg>
