<svg width="490" height="379" viewBox="0 0 490 379" fill="none" xmlns="http://www.w3.org/2000/svg">
<g clip-path="url(#clip0_342_21770)">
<path d="M80.125 378.036C80.125 378.57 80.4181 379 80.783 379H408.929C409.297 379 409.587 378.571 409.587 378.036C409.587 377.5 409.294 377.071 408.929 377.071H80.783C80.4181 377.072 80.125 377.501 80.125 378.036Z" fill="#CCCCCC"/>
<path d="M198.855 374.856H187.139V376.923H198.855V374.856Z" fill="#B6B3C5"/>
<path d="M302.573 375.2H290.857V377.267H302.573V375.2Z" fill="#B6B3C5"/>
<path d="M261.655 282.863C261.003 286.809 258.971 290.396 255.92 292.983C252.87 295.57 249 296.99 244.999 296.99C240.999 296.99 237.129 295.57 234.079 292.983C231.028 290.396 228.996 286.809 228.343 282.863H185.73V375.199H304.27V282.863H261.655Z" fill="#D6D6E3"/>
<path d="M304.614 367.884H186.076V371.098H304.614V367.884Z" fill="#090814"/>
<path d="M483.392 285.277H6.6083C4.85627 285.275 3.17655 284.578 1.93768 283.34C0.698803 282.101 0.00194779 280.421 0 278.67L0 6.608C0.00178549 4.8561 0.698569 3.17646 1.93746 1.93763C3.17636 0.698791 4.85616 0.00194781 6.6083 0H483.392C485.144 0.00210946 486.823 0.69892 488.062 1.93759C489.301 3.17626 489.998 4.85565 490 6.60739V278.67C489.998 280.421 489.301 282.101 488.062 283.339C486.823 284.578 485.144 285.275 483.392 285.277Z" fill="#090814"/>
<path d="M478.834 11.0361H12.2656V274.263H478.834V11.0361Z" fill="white"/>
<path d="M244.809 147.659C225.906 147.659 210.512 131.318 210.512 111.232C210.512 91.1462 225.897 74.8047 244.809 74.8047C263.722 74.8047 279.107 91.1462 279.107 111.232C279.107 131.318 263.721 147.659 244.809 147.659ZM244.809 84.0063C230.973 84.0063 219.719 96.2181 219.719 111.226C219.719 126.233 230.975 138.445 244.809 138.445C258.644 138.445 269.9 126.228 269.9 111.226C269.9 96.2235 258.645 84.0063 244.809 84.0063Z" fill="#D6D6E3"/>
<path d="M277.286 211.144H212.32C206.593 211.138 201.102 208.86 197.052 204.81C193.002 200.76 190.725 195.27 190.719 189.543V125.836C190.722 121.913 192.282 118.152 195.057 115.378C197.831 112.604 201.593 111.044 205.516 111.041H284.102C288.026 111.044 291.788 112.603 294.563 115.377C297.337 118.152 298.897 121.913 298.9 125.836V189.543C298.894 195.272 296.615 200.764 292.563 204.814C288.511 208.865 283.017 211.141 277.287 211.145L277.286 211.144Z" fill="#008075"/>
<path d="M257.465 147.284C257.467 145.034 256.869 142.825 255.732 140.883C254.596 138.941 252.962 137.337 251 136.236C249.037 135.136 246.817 134.578 244.567 134.62C242.317 134.663 240.119 135.305 238.2 136.479C236.281 137.653 234.709 139.318 233.647 141.301C232.585 143.285 232.071 145.515 232.158 147.763C232.245 150.012 232.929 152.196 234.141 154.092C235.353 155.987 237.049 157.526 239.053 158.548V178.351H250.568V158.548C252.645 157.488 254.387 155.876 255.604 153.888C256.821 151.9 257.465 149.615 257.465 147.284Z" fill="#F2F2F2"/>
</g>
<defs>
<clipPath id="clip0_342_21770">
<rect width="490" height="379" fill="white"/>
</clipPath>
</defs>
</svg>
